<svg width="26" height="26" viewBox="0 0 26 26" fill="none" xmlns="http://www.w3.org/2000/svg">
<g clip-path="url(#clip0_1222_7)">
<mask id="mask0_1222_7" style="mask-type:alpha" maskUnits="userSpaceOnUse" x="0" y="0" width="26" height="25">
<path fill-rule="evenodd" clip-rule="evenodd" d="M7.73633 22.4737C7.73633 21.311 8.67889 20.3684 9.84159 20.3684C11.0043 20.3684 11.9469 21.311 11.9469 22.4737C11.9469 23.6364 11.0043 24.5789 9.84159 24.5789C8.67889 24.5789 7.73633 23.6364 7.73633 22.4737Z" fill="#7A869A"/>
<path fill-rule="evenodd" clip-rule="evenodd" d="M19.3154 22.4737C19.3154 21.311 20.258 20.3684 21.4207 20.3684C22.5834 20.3684 23.526 21.311 23.526 22.4737C23.526 23.6364 22.5834 24.5789 21.4207 24.5789C20.258 24.5789 19.3154 23.6364 19.3154 22.4737Z" fill="#7A869A"/>
<path fill-rule="evenodd" clip-rule="evenodd" d="M0.368164 1.42104C0.368164 0.839687 0.839443 0.368408 1.4208 0.368408H5.63132C6.13303 0.368408 6.56502 0.722498 6.66348 1.21445L7.54757 5.63157H24.5787C24.8924 5.63157 25.1898 5.77149 25.3897 6.0132C25.5897 6.25492 25.6715 6.57323 25.6127 6.88138L23.927 15.7209C23.7826 16.4478 23.3871 17.1008 22.8098 17.5655C22.2353 18.028 21.5172 18.2747 20.7801 18.2631H10.5667C9.82961 18.2747 9.11154 18.028 8.53709 17.5655C7.96 17.101 7.56462 16.4483 7.42009 15.7217C7.42003 15.7214 7.42015 15.722 7.42009 15.7217L5.66163 6.93599C5.65449 6.90693 5.64857 6.87739 5.6439 6.84744L4.7685 2.47367H1.4208C0.839443 2.47367 0.368164 2.00239 0.368164 1.42104ZM7.96893 7.73683L9.48484 15.3107C9.53297 15.553 9.66479 15.7707 9.85723 15.9256C10.0497 16.0805 10.2905 16.1628 10.5375 16.1581L10.5576 16.1579H20.7892L20.8094 16.1581C21.0564 16.1628 21.2972 16.0805 21.4896 15.9256C21.6812 15.7714 21.8127 15.555 21.8613 15.3141L23.3063 7.73683H7.96893Z" fill="#7A869A"/>
</mask>
<g mask="url(#mask0_1222_7)">
<rect x="0.368164" y="0.368408" width="25.2632" height="25.2632" fill="#FCFCFD"/>
</g>
</g>
<defs>
<clipPath id="clip0_1222_7">
<rect width="25.2632" height="25.2632" fill="white" transform="translate(0.368164 0.368408)"/>
</clipPath>
</defs>
</svg>
